<?xml version="1.0" encoding="utf-8"?>
<!-- Generator: Adobe Illustrator 27.0.0, SVG Export Plug-In . SVG Version: 6.00 Build 0)  -->
<svg version="1.1" id="Layer_1" xmlns="http://www.w3.org/2000/svg" xmlns:xlink="http://www.w3.org/1999/xlink" x="0px" y="0px"
	 viewBox="0 0 192.43 140.79" style="enable-background:new 0 0 192.43 140.79;" xml:space="preserve">
<g>
	<path d="M20.83,30.01l23,44.94c2.39,5.03,4.99,11,6.73,15.56h0.43c1.95-4.56,4.12-10.37,6.73-15.87l20.83-44.63h20.18L70.07,84.22
		c-13.67,26.08-23,39.44-36.01,47.61c-9.33,5.97-18.66,8.33-23.43,8.96l-4.77-11.63c4.77-1.1,11.06-3.3,16.71-6.76
		c5.21-2.99,11.72-8.33,16.05-15.4c0.87-1.41,1.52-2.51,1.52-3.3s-0.43-1.89-1.3-3.61L0,30.01H20.83z"/>
	<path d="M90.46,128.06c8.68-0.47,16.27-2.2,20.83-5.81c5.21-4.4,7.16-10.37,7.16-28.6V30.01h19.09v68.98
		c0,14.77-3.25,24.36-12.58,31.27c-8.46,6.13-22.35,8.64-32.54,8.64L90.46,128.06z M139.71,8.64c0.22,4.56-4.34,8.49-11.93,8.49
		c-7.16,0-11.72-3.93-11.72-8.49c0-4.87,4.99-8.64,12.15-8.64C135.15,0,139.71,3.77,139.71,8.64z"/>
	<path d="M143.18,128.06c8.68-0.47,16.27-2.2,20.83-5.81c5.21-4.4,7.16-10.37,7.16-28.6V30.01h19.09v68.98
		c0,14.77-3.25,24.36-12.58,31.27c-8.46,6.13-22.35,8.64-32.54,8.64L143.18,128.06z M192.43,8.64c0.22,4.56-4.34,8.49-11.93,8.49
		c-7.16,0-11.72-3.93-11.72-8.49c0-4.87,4.99-8.64,12.15-8.64C187.87,0,192.43,3.77,192.43,8.64z"/>
</g>
</svg>
